<?xml version="1.0" encoding="utf-8"?>
<!-- Generator: Adobe Illustrator 16.0.0, SVG Export Plug-In . SVG Version: 6.00 Build 0)  -->
<!DOCTYPE svg PUBLIC "-//W3C//DTD SVG 1.1//EN" "http://www.w3.org/Graphics/SVG/1.1/DTD/svg11.dtd">
<svg version="1.1" id="Layer_1" xmlns="http://www.w3.org/2000/svg" xmlns:xlink="http://www.w3.org/1999/xlink" x="0px" y="0px"
	 width="300px" height="168px" viewBox="0 0 300 168" enable-background="new 0 0 300 168" xml:space="preserve">
<path fill="#00556E" d="M191.857,135.944"/>
<rect x="49.269" y="55.609" fill="#058897" width="198.515" height="56.732"/>
<g>
	<path fill="#CFE3D0" d="M59.529,104.809c0-1.528,1.595-3.855,2.592-3.855c0.332,0,0.532,0.2,0.731,0.599
		c0.199,0.199,1.33,1.596,3.855,1.596c2.725,0,4.653-1.795,4.653-4.653c0-7.909-16.218-8.242-16.218-21.801
		c0-8.773,9.571-18.079,18.611-18.079c5.184,0,8.375,3.39,8.375,8.575c0,7.377-8.574,14.356-12.628,14.356
		c-2.327,0-3.723-2.459-3.723-3.855c0-1.13,0.599-0.465,1.729-0.465c3.589,0,9.571-5.583,9.571-9.97c0-2.26-0.997-3.656-3.656-3.656
		c-4.918,0-13.094,5.849-13.094,13.094c0,10.302,16.285,10.502,16.285,21.602c0,5.384-4.32,9.837-9.904,9.837
		C61.058,108.132,59.529,105.207,59.529,104.809z"/>
	<path fill="#CFE3D0" d="M87.244,99.093c0.93,2.26,2.725,4.121,6.181,4.121c5.185,0,7.312-4.32,8.109-8.375
		c0.599-2.991,4.321-1.662,4.055,0.664c-0.465,4.055-3.124,12.098-12.895,12.098c-6.049,0-11.765-4.853-11.765-13.161
		c0-8.441,5.051-14.755,10.169-14.755c3.722,0,5.982,2.725,5.982,6.713C97.081,91.315,93.691,97.165,87.244,99.093z M86.446,95.437
		c3.323-1.528,5.45-4.984,5.45-8.973c0-1.462-0.532-2.327-1.396-2.327c-3.257,0-4.254,7.312-4.121,10.103
		C86.38,94.64,86.446,95.038,86.446,95.437z"/>
	<path fill="#CFE3D0" d="M124.796,96.035c0.266-1.396,0.931-1.994,1.595-1.994c1.063,0,2.326,1.462,2.326,2.726
		c0,0.066,0,0.199-0.066,0.465c-1.13,4.387-3.789,10.369-9.505,10.369c-2.326,0-4.121-1.13-5.118-2.726
		c-1.33,1.529-3.19,2.726-5.716,2.726c-5.185,0-7.91-4.387-7.91-10.037c0-11.1,7.71-17.879,15.819-17.879
		c1.794,0,3.058,1.063,3.058,2.792c0,1.13-0.2,1.529-0.864,1.529c-0.598,0-1.263-0.133-1.927-0.133
		c-5.052,0-10.967,4.32-10.967,13.892c0,3.456,1.462,5.45,3.789,5.45c1.794,0,2.991-1.596,3.722-3.457V89.521
		c0-1.263-0.266-1.662-0.266-2.127c0-0.665,0.798-1.13,1.729-1.13c2.193,0,3.589,1.329,3.589,2.924v10.968
		c0,1.462,0.665,3.058,2.26,3.058C123.002,103.214,124.198,98.96,124.796,96.035z"/>
	<path fill="#CFE3D0" d="M132.704,100.023c0-4.254,1.196-8.974,3.323-14.689h-5.052h-0.731c-0.066,2.592-0.465,8.375-1.662,12.229
		c-0.864,2.792-4.32,0.399-3.722-1.86c0.731-2.659,0.997-8.176,1.063-11.566c-1.662-0.93-2.858-2.326-2.858-4.254
		c0-1.861,1.595-3.057,3.323-3.057c1.595,0,3.456,0.797,4.188,3.522c2.193,0.266,2.858,0.266,3.522,0.266h3.457
		c0.797,0,3.456,2.193,3.19,3.722c0,0.798-2.991,8.641-2.991,15.287c0,1.861,0.864,3.59,2.659,3.59c3.058,0,4.188-4.254,4.786-7.179
		c0.266-1.396,0.931-1.994,1.595-1.994c1.063,0,2.327,1.462,2.327,2.726c0,0.199-0.067,0.332-0.067,0.465
		c-1.196,4.387-3.789,10.369-9.504,10.369C136.426,107.601,132.704,105.872,132.704,100.023z"/>
	<path fill="#CFE3D0" d="M144.6,95.038c0-7.644,4.52-15.354,10.833-15.354c4.587,0,6.314,4.188,6.314,6.514
		c0,2.525-4.586,3.854-4.187,1.528c-0.333-1.13-0.466-3.589-2.726-3.589c-2.459,0-4.786,4.918-4.786,10.901
		c0,5.251,2.858,8.176,6.78,8.176c5.185,0,7.577-4.32,8.375-8.375c0.598-2.991,4.32-1.662,4.055,0.664
		c-0.466,4.055-3.391,12.098-13.161,12.098C150.183,107.601,144.6,103.214,144.6,95.038z"/>
	<path fill="#CFE3D0" d="M165.204,64.795c0-1.928-0.664-2.061-0.664-2.526s1.196-0.731,2.127-0.731c2.193,0,3.589,1.329,3.589,2.924
		v21.802c1.795-3.723,4.188-6.581,7.444-6.581c4.453,0,5.517,3.656,5.517,6.713v13.759c0,0.598,0,3.058,1.729,3.058
		c2.658,0,3.854-4.254,4.453-7.179c0.798-4.055,4.387-0.931,3.855,1.196c-1.197,4.387-3.789,10.369-9.505,10.369
		c-3.523,0-5.584-2.858-5.584-6.248V87.859c0-2.061-0.133-3.789-1.396-3.789c-1.928,0-6.049,5.716-6.514,10.967v9.704
		c0,1.263,0.066,2.858-1.861,2.858c-1.329,0-3.19-0.466-3.19-2.925V64.795z"/>
</g>
<g>
	<path fill="#CFE3D0" d="M240.32,105.867c0,0.907-0.332,1.692-0.995,2.355s-1.449,0.995-2.356,0.995
		c-0.942,0-1.728-0.332-2.356-0.995l-8.979-8.953c-3.124,2.164-6.606,3.246-10.446,3.246c-2.496,0-4.882-0.484-7.16-1.453
		c-2.277-0.969-4.241-2.277-5.891-3.927s-2.958-3.613-3.927-5.891c-0.969-2.278-1.453-4.664-1.453-7.161
		c0-2.496,0.484-4.882,1.453-7.16s2.277-4.241,3.927-5.891s3.613-2.958,5.891-3.927c2.278-0.969,4.664-1.453,7.16-1.453
		s4.883,0.484,7.161,1.453c2.277,0.969,4.241,2.278,5.891,3.927c1.648,1.649,2.958,3.613,3.927,5.891s1.453,4.665,1.453,7.16
		c0,3.84-1.083,7.322-3.247,10.446l8.98,8.98C239.997,104.156,240.32,104.941,240.32,105.867z M223.473,92.371
		c2.295-2.295,3.443-5.058,3.443-8.287c0-3.229-1.148-5.991-3.443-8.286c-2.295-2.295-5.057-3.442-8.286-3.442
		c-3.229,0-5.991,1.147-8.286,3.442c-2.295,2.295-3.442,5.058-3.442,8.286c0,3.229,1.147,5.992,3.442,8.287s5.058,3.442,8.286,3.442
		C218.416,95.813,221.178,94.666,223.473,92.371z"/>
</g>
<path fill="#058897" stroke="#058897" stroke-miterlimit="10" d="M189.295,13.043c2.297,4.201,3.628,9.157,3.628,14.468
	c0,10.237-4.936,19.16-12.246,23.878h59.903L189.295,13.043z"/>
<g>
	<path fill="#058897" d="M77.533,14.018c5.021,0,7.601,3.003,7.601,8.258v1.032h-4.88v-1.361c0-2.346-0.938-3.237-2.581-3.237
		s-2.581,0.892-2.581,3.237c0,6.757,10.088,8.024,10.088,17.408c0,5.255-2.627,8.258-7.695,8.258c-5.068,0-7.695-3.003-7.695-8.258
		v-2.018h4.88v2.346c0,2.346,1.032,3.19,2.674,3.19c1.643,0,2.675-0.844,2.675-3.19c0-6.757-10.088-8.023-10.088-17.408
		C69.932,17.021,72.513,14.018,77.533,14.018z"/>
	<path fill="#058897" d="M103.431,22.51v4.27c0,5.255-2.534,8.117-7.695,8.117h-2.44v12.34h-5.161V14.393h7.601
		C100.897,14.393,103.431,17.255,103.431,22.51z M93.296,19.085v11.12h2.44c1.642,0,2.534-0.751,2.534-3.097v-4.927
		c0-2.346-0.892-3.097-2.534-3.097H93.296z"/>
	<path fill="#058897" d="M106.056,14.393h5.161v28.153h8.493v4.692h-13.654V14.393z"/>
	<path fill="#058897" d="M138.663,47.237h-5.208l-0.892-5.959h-6.334l-0.891,5.959h-4.739l5.255-32.845h7.554L138.663,47.237z
		 M126.886,36.821h4.974l-2.487-16.61L126.886,36.821z"/>
	<path fill="#058897" d="M147.998,14.018c5.021,0,7.602,3.003,7.602,8.258v1.032h-4.88v-1.361c0-2.346-0.938-3.237-2.581-3.237
		s-2.581,0.892-2.581,3.237c0,6.757,10.088,8.024,10.088,17.408c0,5.255-2.628,8.258-7.695,8.258c-5.068,0-7.695-3.003-7.695-8.258
		v-2.018h4.88v2.346c0,2.346,1.032,3.19,2.674,3.19c1.643,0,2.675-0.844,2.675-3.19c0-6.757-10.088-8.023-10.088-17.408
		C140.396,17.021,142.978,14.018,147.998,14.018z"/>
	<path fill="#058897" d="M163.761,47.237H158.6V14.393h5.161v14.076h5.865V14.393h5.255v32.845h-5.255V33.161h-5.865V47.237z"/>
</g>
<path fill="#058897" stroke="#058897" stroke-miterlimit="10" d="M103.223,140.083c-0.011-10.239,4.918-19.167,12.226-23.891
	l-59.908,0.065l51.321,38.283C104.562,150.345,103.229,145.393,103.223,140.083z"/>
<g>
	<path fill="#058897" stroke="#058897" stroke-width="3" stroke-miterlimit="10" d="M148.483,133.025
		c0.61-0.136,1.248-0.167,1.854-0.029c0.606,0.131,1.176,0.437,1.61,0.887c0.435,0.449,0.735,1.037,0.86,1.661
		c0.121,0.622,0.074,1.279-0.125,1.874c-0.201,0.599-0.544,1.138-0.98,1.573c-0.436,0.437-0.952,0.776-1.512,1.029
		c-1.117,0.495-2.359,0.713-3.553,0.6c-1.203-0.112-2.363-0.579-3.301-1.356c-0.943-0.774-1.666-1.835-2.094-3.004
		c-0.43-1.17-0.56-2.461-0.352-3.686c0.205-1.221,0.752-2.366,1.556-3.273c0.798-0.917,1.829-1.595,2.939-2.071
		c1.107-0.473,2.305-0.759,3.507-0.916c2.406-0.321,4.896,0.015,7.025,1.171c2.135,1.136,3.873,3.058,4.857,5.349
		c1.005,2.287,1.271,4.917,0.754,7.365c-0.511,2.461-1.814,4.704-3.601,6.396c-1.788,1.706-4.007,2.881-6.335,3.648
		c-2.337,0.771-4.789,1.147-7.238,1.076c-2.455-0.062-4.9-0.546-7.252-1.336c-4.711-1.6-9.021-4.392-12.904-7.66
		c-3.907-3.27-7.438-7.039-10.548-11.171c1.445,2.154,3.061,4.183,4.771,6.116c1.711,1.936,3.52,3.776,5.437,5.483
		c1.932,1.704,3.975,3.269,6.136,4.644c2.162,1.373,4.445,2.551,6.854,3.419c2.396,0.864,4.921,1.414,7.476,1.501
		c2.554,0.102,5.128-0.263,7.572-1.045c2.441-0.774,4.807-2.021,6.735-3.854c1.937-1.82,3.395-4.268,3.945-6.972
		c0.566-2.692,0.264-5.574-0.844-8.075c-1.093-2.502-3.001-4.623-5.356-5.841c-2.35-1.241-5.055-1.569-7.602-1.2
		c-1.271,0.182-2.534,0.488-3.741,1.031c-1.193,0.535-2.32,1.311-3.205,2.355c-0.882,1.04-1.482,2.353-1.687,3.73
		c-0.201,1.379-0.025,2.8,0.467,4.075c0.492,1.281,1.307,2.423,2.358,3.247c1.045,0.832,2.331,1.326,3.629,1.406
		c1.301,0.075,2.591-0.2,3.765-0.764c0.582-0.29,1.127-0.675,1.583-1.163c0.459-0.485,0.816-1.081,1.008-1.731
		c0.198-0.654,0.227-1.363,0.072-2.025c-0.154-0.66-0.492-1.275-0.965-1.729c-0.479-0.459-1.081-0.744-1.707-0.852
		C149.727,132.8,149.084,132.86,148.483,133.025z"/>
	<path fill="#058897" stroke="#058897" stroke-width="3" stroke-miterlimit="10" d="M197.52,132.951
		c0.582-0.234,1.204-0.369,1.826-0.335c0.617,0.025,1.231,0.23,1.736,0.606c0.5,0.369,0.897,0.9,1.119,1.495
		c0.226,0.593,0.289,1.249,0.19,1.87c-0.098,0.621-0.353,1.21-0.707,1.71c-0.355,0.505-0.813,0.925-1.32,1.266
		c-1.019,0.674-2.207,1.098-3.405,1.181c-1.206,0.093-2.43-0.179-3.482-0.791c-1.058-0.604-1.947-1.528-2.56-2.616
		c-0.616-1.081-0.96-2.333-0.96-3.572c0-1.241,0.355-2.459,0.992-3.486c0.638-1.039,1.541-1.88,2.557-2.53
		c1.019-0.649,2.146-1.133,3.312-1.487c2.316-0.713,4.825-0.794,7.12-0.005c2.291,0.764,4.321,2.375,5.673,4.466
		c1.371,2.091,2.07,4.641,1.958,7.143c-0.091,2.512-1.003,4.94-2.483,6.901c-1.484,1.977-3.479,3.507-5.646,4.651
		c-2.178,1.146-4.534,1.923-6.962,2.258c-2.432,0.343-4.918,0.271-7.368-0.118c-4.913-0.797-9.625-2.836-14.001-5.416
		c-4.391-2.578-8.495-5.71-12.252-9.274c1.783,1.886,3.715,3.619,5.721,5.244c2.008,1.626,4.095,3.142,6.272,4.51
		c2.188,1.359,4.454,2.566,6.817,3.563c2.356,0.994,4.808,1.777,7.323,2.234c2.509,0.46,5.089,0.582,7.62,0.246
		c2.539-0.325,5.015-1.107,7.298-2.285c2.282-1.171,4.406-2.789,6.008-4.916c1.604-2.118,2.631-4.771,2.735-7.528
		c0.11-2.752-0.665-5.541-2.171-7.827c-1.491-2.283-3.724-4.062-6.248-4.875c-2.524-0.836-5.245-0.709-7.698,0.078
		c-1.226,0.391-2.42,0.9-3.516,1.633c-1.087,0.728-2.076,1.679-2.772,2.855c-0.693,1.172-1.073,2.565-1.042,3.959
		c0.022,1.393,0.432,2.767,1.13,3.941c0.7,1.18,1.69,2.174,2.863,2.812c1.168,0.647,2.516,0.924,3.815,0.786
		c1.291-0.144,2.52-0.626,3.582-1.377c0.53-0.381,1.003-0.849,1.373-1.406c0.367-0.555,0.623-1.203,0.703-1.878
		c0.088-0.677,0-1.382-0.265-2.01c-0.254-0.623-0.689-1.175-1.235-1.545c-0.548-0.373-1.188-0.554-1.825-0.554
		C198.711,132.523,198.09,132.688,197.52,132.951z"/>
</g>
<path fill="#0A6478" stroke="#00556E" stroke-miterlimit="10" d="M119.354,69.345"/>
</svg>
