<?xml version="1.0" encoding="utf-8"?>
<!-- Generator: Adobe Illustrator 16.0.0, SVG Export Plug-In . SVG Version: 6.00 Build 0)  -->
<!DOCTYPE svg PUBLIC "-//W3C//DTD SVG 1.1//EN" "http://www.w3.org/Graphics/SVG/1.1/DTD/svg11.dtd">
<svg version="1.1" id="Layer_1" xmlns="http://www.w3.org/2000/svg" xmlns:xlink="http://www.w3.org/1999/xlink" x="0px" y="0px"
	 width="300px" height="168px" viewBox="0 0 300 168" enable-background="new 0 0 300 168" xml:space="preserve">
<path fill="#00556E" d="M191.857,135.944"/>
<rect x="49.269" y="55.609" fill="#058897" width="198.515" height="56.732"/>
<rect x="53.187" y="61.889" transform="matrix(1 0.0045 -0.0045 1 0.3954 -0.5877)" fill="none" width="152.936" height="49.798"/>
<text transform="matrix(1 0 0 1 53.2808 105.7393)" fill="#CFE3D0" font-family="'GrandHotel-Regular'" font-size="66.4634">Search</text>
<rect x="196.756" y="61.229" fill="none" width="49.449" height="51.115"/>
<text transform="matrix(1 0 0 1 196.7559 102.5156)" fill="#CFE3D0" font-family="'FontAwesome'" font-size="46.9153"></text>
<path fill="#058897" stroke="#058897" stroke-miterlimit="10" d="M189.295,13.043c2.297,4.201,3.628,9.157,3.628,14.468
	c0,10.237-4.936,19.16-12.246,23.878h59.903L189.295,13.043z"/>
<rect x="68.712" y="14.397" fill="none" width="126.802" height="38.685"/>
<text transform="matrix(1 0 0 1 68.7119 47.2373)" fill="#058897" font-family="'BebasNeueBold'" font-size="46.9153">SPLASH</text>
<path fill="#058897" stroke="#058897" stroke-miterlimit="10" d="M103.223,140.083c-0.011-10.239,4.918-19.167,12.226-23.891
	l-59.908,0.065l51.321,38.283C104.562,150.345,103.229,145.393,103.223,140.083z"/>
<g>
	<path fill="#058897" stroke="#058897" stroke-width="3" stroke-miterlimit="10" d="M148.483,133.025
		c0.61-0.136,1.248-0.167,1.854-0.029c0.606,0.131,1.176,0.437,1.61,0.887c0.435,0.449,0.735,1.037,0.86,1.661
		c0.121,0.622,0.074,1.279-0.125,1.874c-0.201,0.599-0.544,1.138-0.98,1.573c-0.436,0.437-0.952,0.776-1.512,1.029
		c-1.117,0.495-2.359,0.713-3.553,0.6c-1.203-0.112-2.363-0.579-3.301-1.356c-0.943-0.774-1.666-1.835-2.094-3.004
		c-0.43-1.17-0.56-2.461-0.352-3.686c0.205-1.221,0.752-2.366,1.556-3.273c0.798-0.917,1.829-1.595,2.939-2.071
		c1.107-0.473,2.305-0.759,3.507-0.916c2.406-0.321,4.896,0.015,7.025,1.171c2.135,1.136,3.873,3.058,4.857,5.349
		c1.005,2.287,1.271,4.917,0.754,7.365c-0.511,2.461-1.814,4.704-3.601,6.396c-1.788,1.706-4.007,2.881-6.335,3.648
		c-2.337,0.771-4.789,1.147-7.238,1.076c-2.455-0.062-4.9-0.546-7.252-1.336c-4.711-1.6-9.021-4.392-12.904-7.66
		c-3.907-3.27-7.438-7.039-10.548-11.171c1.445,2.154,3.061,4.183,4.771,6.116c1.711,1.936,3.52,3.776,5.437,5.483
		c1.932,1.704,3.975,3.269,6.136,4.644c2.162,1.373,4.445,2.551,6.854,3.419c2.396,0.864,4.921,1.414,7.476,1.501
		c2.554,0.102,5.128-0.263,7.572-1.045c2.441-0.774,4.807-2.021,6.735-3.854c1.937-1.82,3.395-4.268,3.945-6.972
		c0.566-2.692,0.264-5.574-0.844-8.075c-1.093-2.502-3.001-4.623-5.356-5.841c-2.35-1.241-5.055-1.569-7.602-1.2
		c-1.271,0.182-2.534,0.488-3.741,1.031c-1.193,0.535-2.32,1.311-3.205,2.355c-0.882,1.04-1.482,2.353-1.687,3.73
		c-0.201,1.379-0.025,2.8,0.467,4.075c0.492,1.281,1.307,2.423,2.358,3.247c1.045,0.832,2.331,1.326,3.629,1.406
		c1.301,0.075,2.591-0.2,3.765-0.764c0.582-0.29,1.127-0.675,1.583-1.163c0.459-0.485,0.816-1.081,1.008-1.731
		c0.198-0.654,0.227-1.363,0.072-2.025c-0.154-0.66-0.492-1.275-0.965-1.729c-0.479-0.459-1.081-0.744-1.707-0.852
		C149.727,132.8,149.084,132.86,148.483,133.025z"/>
	<path fill="#058897" stroke="#058897" stroke-width="3" stroke-miterlimit="10" d="M197.52,132.951
		c0.582-0.234,1.204-0.369,1.826-0.335c0.617,0.025,1.231,0.23,1.736,0.606c0.5,0.369,0.897,0.9,1.119,1.495
		c0.226,0.593,0.289,1.249,0.19,1.87c-0.098,0.621-0.353,1.21-0.707,1.71c-0.355,0.505-0.813,0.925-1.32,1.266
		c-1.019,0.674-2.207,1.098-3.405,1.181c-1.206,0.093-2.43-0.179-3.482-0.791c-1.058-0.604-1.947-1.528-2.56-2.616
		c-0.616-1.081-0.96-2.333-0.96-3.572c0-1.241,0.355-2.459,0.992-3.486c0.638-1.039,1.541-1.88,2.557-2.53
		c1.019-0.649,2.146-1.133,3.312-1.487c2.316-0.713,4.825-0.794,7.12-0.005c2.291,0.764,4.321,2.375,5.673,4.466
		c1.371,2.091,2.07,4.641,1.958,7.143c-0.091,2.512-1.003,4.94-2.483,6.901c-1.484,1.977-3.479,3.507-5.646,4.651
		c-2.178,1.146-4.534,1.923-6.962,2.258c-2.432,0.343-4.918,0.271-7.368-0.118c-4.913-0.797-9.625-2.836-14.001-5.416
		c-4.391-2.578-8.495-5.71-12.252-9.274c1.783,1.886,3.715,3.619,5.721,5.244c2.008,1.626,4.095,3.142,6.272,4.51
		c2.188,1.359,4.454,2.566,6.817,3.563c2.356,0.994,4.808,1.777,7.323,2.234c2.509,0.46,5.089,0.582,7.62,0.246
		c2.539-0.325,5.015-1.107,7.298-2.285c2.282-1.171,4.406-2.789,6.008-4.916c1.604-2.118,2.631-4.771,2.735-7.528
		c0.11-2.752-0.665-5.541-2.171-7.827c-1.491-2.283-3.724-4.062-6.248-4.875c-2.524-0.836-5.245-0.709-7.698,0.078
		c-1.226,0.391-2.42,0.9-3.516,1.633c-1.087,0.728-2.076,1.679-2.772,2.855c-0.693,1.172-1.073,2.565-1.042,3.959
		c0.022,1.393,0.432,2.767,1.13,3.941c0.7,1.18,1.69,2.174,2.863,2.812c1.168,0.647,2.516,0.924,3.815,0.786
		c1.291-0.144,2.52-0.626,3.582-1.377c0.53-0.381,1.003-0.849,1.373-1.406c0.367-0.555,0.623-1.203,0.703-1.878
		c0.088-0.677,0-1.382-0.265-2.01c-0.254-0.623-0.689-1.175-1.235-1.545c-0.548-0.373-1.188-0.554-1.825-0.554
		C198.711,132.523,198.09,132.688,197.52,132.951z"/>
</g>
<path fill="#0A6478" stroke="#00556E" stroke-miterlimit="10" d="M119.354,69.345"/>
</svg>
